                  ◄► Neon Genesis Evangelion - Peliculas ◄►


► Death and Rebirth

► The end of Evangelion

► Evangelion: 1.0 You Are [Not] Alone

► Evangelion: 2.0 You Can [Not] Advance 



Sinopsis: http://es.wikipedia.org/wiki/Neon_Genesis_Evangelion





► Ficha Tecnica:

→ Titulo: Neon Genesis Evangelion (新世紀エヴァンゲリオン)
→ Categoria: Peliculas
→ Genero: Drama, Historia, Recuerdos de vida, Seinen
→ Estudio: Gainax - Khara
→ Episodios: 4
→ Año: 1997 - 2009
→ Fansub: Athena no Seinto - Wing Zero Fansub
→ Idioma: Japones
→ Subtitulos: Español
→ Formato: MP4
→ Resolución: 848x480
→ Duración: 67 Min - 102 Min (c/u)
→ Aspecto: 16:9
→ Peso Aprox: 200 - 360 Mb (c/u)
→ Servidor: P2P





► Especificaciones de video:

 ▼General
  Format                                   : MPEG-4
  Format profile                           : Base Media
  Codec ID                                 : isom
  File size                                : 206 MiB
  Duration                                 : 1h 7mn
  Overall bit rate mode                    : Variable
  Overall bit rate                         : 425 Kbps
 

  ▼Video
   ID                                       : 1
   Format                                   : AVC
   Format/Info                              : Advanced Video Codec
   Format profile                           : High@L5.1
   Format settings, CABAC                   : Yes
   Format settings, ReFrames                : 3 frames
   Codec ID                                 : avc1
   Codec ID/Info                            : Advanced Video Coding
   Duration                                 : 1h 7mn
   Duration_LastFrame                       : 40ms
   Bit rate                                 : 385 Kbps
   Maximum bit rate                         : 4 589 Kbps
   Width                                    : 848 pixels
   Height                                   : 480 pixels
   Display aspect ratio                     : 16:9
   Original display aspect ratio            : 16:9
   Frame rate mode                          : Constant
   Frame rate                               : 25.000 fps
   Color space                              : YUV
   Chroma subsampling                       : 4:2:0
   Bit depth                                : 8 bits
   Scan type                                : Progressive
   Bits/(Pixel*Frame)                       : 0.038
   Stream size                              : 187 MiB (91%)
   Title                                    : Imported with GPAC 0.4.6-DEV
   Writing library                          : x264 core 113 r1884 7313bb5


  ▼Audio
   ID                                       : 2
   Format                                   : AAC
   Format/Info                              : Advanced Audio Codec
   Format profile                           : HE-AAC / LC
   Codec ID                                 : 40
   Duration                                 : 1h 7mn
   Bit rate mode                            : Variable
   Bit rate                                 : 36.4 Kbps
   Maximum bit rate                         : 47.6 Kbps
   Channel(s)                               : 2 channels
   Channel positions                        : Front: L R
   Sampling rate                            : 48.0 KHz / 24.0 KHz
   Compression mode                         : Lossy
   Stream size                              : 17.7 MiB (9%)



>===========? ENJOY!!